<svg width="60" height="60" viewBox="0 0 60 60" fill="none" xmlns="http://www.w3.org/2000/svg">
    <path d="M53.4609 29.5193H6.04687C4.78125 29.5193 3.75 30.4568 3.75 31.6287V33.9725C3.75 35.1443 4.78125 36.0818 6.04687 36.0818H7.26562V43.9334C7.26562 48.4334 10.0781 52.0897 13.5234 52.0897H45.5391C48.9844 52.0897 51.7969 48.4334 51.7969 43.9334V36.0818H53.4844C54.75 36.0818 55.7812 35.1443 55.7812 33.9725V31.6287C55.7812 30.4568 54.75 29.5193 53.4609 29.5193ZM49.9219 33.1053V34.2068H9.14062V33.1053C9.14062 32.5193 9.21094 31.9568 9.30469 31.3943H49.6875C49.8281 31.9568 49.9219 32.4022 49.9219 33.1053ZM6.04687 34.2068C5.78906 34.2068 5.625 34.0662 5.625 33.9725V31.6287C5.625 31.535 5.78906 31.3943 6.04687 31.3943H7.40625C7.3125 31.9568 7.26562 32.5193 7.26562 33.1053V34.2068H6.04687ZM49.9219 43.9334C49.9219 47.4022 47.9531 50.2147 45.5391 50.2147H13.5C11.0859 50.2147 9.11719 47.4022 9.11719 43.9334V36.0818H49.8984V43.9334H49.9219ZM53.9062 33.9725C53.9062 34.0662 53.7422 34.2068 53.4844 34.2068H51.7969V33.1053C51.7969 32.4256 51.7266 31.8865 51.6094 31.3943H53.4609C53.7188 31.3943 53.8828 31.535 53.8828 31.6287V33.9725H53.9062Z" fill="white"/>
    <path d="M15.5625 19.5818C16.2657 21.8318 18.8672 23.0037 20.1563 23.3084C20.2266 23.3318 20.2969 23.3318 20.3672 23.3318C20.7891 23.3318 21.1641 23.0506 21.2813 22.6053C21.3985 22.1131 21.0938 21.5975 20.5782 21.4803C19.4766 21.2225 17.7188 20.285 17.3438 19.0193C17.086 18.2225 17.4375 17.3084 18.3282 16.3006C19.5704 14.9178 20.086 13.5115 19.8985 12.0818C19.5938 9.83183 17.5313 8.47245 17.461 8.42558C17.0157 8.14433 16.4532 8.26152 16.1719 8.70683C15.8907 9.12871 16.0079 9.71464 16.4532 9.99589C16.4766 9.99589 17.8829 10.9568 18.0704 12.3631C18.1875 13.2068 17.8125 14.1209 16.9688 15.0584C15.2344 16.9803 15.2578 18.574 15.5625 19.5818Z" fill="white"/>
    <path d="M25.3359 19.5818C26.0391 21.8318 28.6406 23.0037 29.9297 23.3084C30 23.3318 30.0703 23.3318 30.1406 23.3318C30.5625 23.3318 30.9375 23.0506 31.0547 22.6053C31.1719 22.1131 30.8672 21.5975 30.3516 21.4803C29.25 21.2225 27.4922 20.285 27.1172 19.0193C26.8594 18.2225 27.2109 17.3084 28.1016 16.3006C29.3437 14.9178 29.8594 13.5115 29.6719 12.0818C29.3672 9.83183 27.3047 8.47245 27.2109 8.42558C26.7656 8.14433 26.2031 8.26152 25.9219 8.70683C25.6406 9.12871 25.7578 9.71464 26.2031 9.99589C26.2266 9.99589 27.6328 10.9568 27.8203 12.3631C27.9375 13.2068 27.5625 14.1209 26.7187 15.0584C25.0078 16.9803 25.0078 18.574 25.3359 19.5818Z" fill="white"/>
    <path d="M34.7812 19.5818C35.4843 21.8318 38.0859 23.0037 39.375 23.3084C39.4453 23.3318 39.5156 23.3318 39.5859 23.3318C40.0078 23.3318 40.3828 23.0506 40.5 22.6053C40.6171 22.1131 40.3125 21.5975 39.7968 21.4803C38.6953 21.2225 36.9375 20.285 36.5625 19.0193C36.3046 18.2225 36.6562 17.3084 37.5468 16.3006C38.789 14.9178 39.3046 13.5115 39.1171 12.0818C38.8125 9.80839 36.75 8.44902 36.6562 8.40214C36.2109 8.12089 35.6484 8.23808 35.3671 8.68339C35.0859 9.10527 35.2031 9.6912 35.6484 9.97245C35.6718 9.97245 37.0781 10.9334 37.2656 12.3396C37.3828 13.1834 37.0078 14.0975 36.164 15.035C34.4531 16.9803 34.4765 18.574 34.7812 19.5818Z" fill="white"/>
</svg>
