<svg xmlns="http://www.w3.org/2000/svg" width="234" height="73" viewBox="0 0 234 73" fill="none">
    <path d="M61.5536 49.2583H41.5801V19.688H61.5536V22.1533H44.0315V35.0512H58.6008V37.5166H44.0315V46.793H61.5536V49.2583Z" fill="#A26100"/>
    <path d="M74.6348 49.2583H72.1695L77.8523 39.2158L66.3055 19.688H68.757L79.287 37.2519L89.413 19.688H91.8784L80.5963 39.2158L86.8223 49.2583H84.357L79.287 41.1937L74.6348 49.2583Z" fill="#A26100"/>
    <path d="M111.408 49.7041C108.751 49.7041 106.286 49.0007 104.012 47.587C101.745 46.1662 99.9486 44.2789 98.6219 41.918C97.2917 39.5502 96.6301 37.0256 96.6301 34.3409C96.6301 31.6492 97.2848 29.1455 98.5941 26.8334C99.9103 24.5212 101.704 22.6792 103.97 21.3037C106.244 19.9318 108.724 19.2423 111.408 19.2423C114.1 19.2423 116.569 19.9318 118.818 21.3037C121.075 22.6792 122.865 24.5212 124.195 26.8334C125.532 29.1455 126.2 31.6492 126.2 34.3409C126.2 37.0256 125.525 39.5571 124.181 41.932C122.833 44.3103 121.023 46.2011 118.749 47.6009C116.482 49.0042 114.034 49.7041 111.408 49.7041ZM111.45 47.2387C113.574 47.2387 115.576 46.6468 117.453 45.4559C119.337 44.258 120.855 42.6632 122.008 40.6645C123.157 38.6587 123.735 36.5381 123.735 34.2991C123.735 32.0531 123.181 29.9673 122.078 28.0452C120.97 26.1161 119.476 24.577 117.593 23.4348C115.705 22.2857 113.658 21.7077 111.45 21.7077C109.305 21.7077 107.275 22.2753 105.363 23.407C103.448 24.5421 101.923 26.0778 100.781 28.0173C99.6457 29.9603 99.0816 32.0531 99.0816 34.2991C99.0816 36.5103 99.6317 38.617 100.739 40.6227C101.843 42.6214 103.344 44.2232 105.238 45.428C107.139 46.6363 109.211 47.2387 111.45 47.2387Z" fill="#A26100"/>
    <path d="M143.797 49.2583H141.332V22.1533H130.941V19.688H153.38V22.1533H143.797V49.2583Z" fill="#A26100"/>
    <path d="M160.627 49.2583H158.175V19.688H160.627V49.2583Z" fill="#A26100"/>
    <path d="M191.91 44.3277C190.468 46.0653 188.765 47.3989 186.798 48.3252C184.827 49.2445 182.766 49.7041 180.614 49.7041C177.863 49.7041 175.324 49.0286 172.995 47.6705C170.662 46.3055 168.82 44.453 167.465 42.113C166.107 39.7661 165.432 37.2032 165.432 34.4245C165.432 31.5273 166.107 28.9227 167.465 26.6105C168.82 24.2914 170.655 22.4842 172.967 21.1923C175.286 19.8935 177.835 19.2423 180.614 19.2423C182.915 19.2423 185.043 19.7124 186.993 20.6491C188.95 21.5893 190.59 22.9264 191.91 24.6605L190.113 26.137C188.887 24.671 187.467 23.5671 185.851 22.822C184.242 22.0803 182.557 21.7077 180.795 21.7077C178.343 21.7077 176.136 22.2718 174.179 23.393C172.229 24.5073 170.69 26.0325 169.568 27.9616C168.444 29.8837 167.883 32.0392 167.883 34.4245C167.883 36.8759 168.458 39.0836 169.61 41.0405C170.759 42.9905 172.305 44.5157 174.248 45.6091C176.188 46.6955 178.309 47.2387 180.614 47.2387C182.431 47.2387 184.193 46.8209 185.893 45.9852C187.599 45.1495 189.054 44.0317 190.252 42.6284L191.91 44.3277Z" fill="#A26100"/>
    <mask id="mask0_79_6020" style="mask-type:luminance" maskUnits="userSpaceOnUse" x="195" y="59" width="28" height="3">
        <path d="M195.985 59.6631H222.68V61.6653H195.985V59.6631Z" fill="white"/>
    </mask>
    <g mask="url(#mask0_79_6020)">
        <path d="M222.662 60.666L221.973 60.8889L221.774 61.6654L221.572 60.8889L221.172 60.76H195.999V60.572H221.172L221.572 60.4431L221.774 59.6666L221.973 60.4431L222.662 60.666Z" fill="black"/>
    </g>
    <path d="M43.3226 63.5653H42.5287V55.8628H43.3226V63.5653Z" fill="#282D2A"/>
    <path d="M54.8833 57.8964V63.5654H54.0894V55.3754L58.4211 61.5318V55.8629H59.2011V64.0389L54.8833 57.8964Z" fill="#282D2A"/>
    <path d="M75.9509 59.721C75.9509 60.2782 75.8464 60.79 75.6445 61.2531C75.439 61.7267 75.157 62.1376 74.7948 62.4789C74.4396 62.8236 74.0218 63.0882 73.5412 63.2728C73.0572 63.4678 72.5419 63.5653 71.9952 63.5653H69.9755V55.8628H71.9952C72.5419 55.8628 73.0572 55.9568 73.5412 56.1414C74.0218 56.3468 74.4396 56.6149 74.7948 56.9492C75.157 57.294 75.439 57.6979 75.6445 58.161C75.8464 58.6346 75.9509 59.1569 75.9509 59.721ZM75.1848 59.721C75.1848 58.84 74.8714 58.1053 74.2516 57.5203C73.6457 56.9457 72.9005 56.6567 72.0091 56.6567H70.7695V62.7714H72.0091C72.9005 62.7714 73.6457 62.4858 74.2516 61.9078C74.8714 61.3228 75.1848 60.595 75.1848 59.721Z" fill="#282D2A"/>
    <path d="M87.1765 63.5653H86.3826V55.8628H87.1765V63.5653Z" fill="#282D2A"/>
    <path d="M99.1829 60.7378H101.983L100.59 57.186L99.1829 60.7378ZM103.96 63.5653H103.111L102.275 61.476H98.8904L98.0686 63.5653H97.205L100.59 55.3335L103.96 63.5653Z" fill="#282D2A"/>
    <path d="M114.793 57.8964V63.5654H113.999V55.3754L118.331 61.5318V55.8629H119.111V64.0389L114.793 57.8964Z" fill="#282D2A"/>
    <path d="M146.581 63.5653H142.012V55.8628H146.581V56.601H142.806V59.3449H146.469V60.0832H142.806V62.8271H146.581V63.5653Z" fill="#282D2A"/>
    <path d="M158.595 60.7378H161.394L160.001 57.186L158.595 60.7378ZM163.372 63.5653H162.522L161.687 61.476H158.302L157.48 63.5653H156.617L160.001 55.3335L163.372 63.5653Z" fill="#282D2A"/>
    <path d="M172.784 56.5732V55.8489H177.311V56.5732H175.445V63.5374H174.651V56.5732H172.784Z" fill="#282D2A"/>
    <path d="M189.608 59.9299C188.037 59.5678 187.254 58.8957 187.254 57.9103C187.254 57.186 187.505 56.6428 188.006 56.2806C188.507 55.9289 189.099 55.7513 189.789 55.7513C191.283 55.7513 192.174 56.3085 192.463 57.4228H191.6C191.439 56.7646 190.837 56.4338 189.789 56.4338C189.044 56.4338 188.525 56.6532 188.229 57.0885C188.117 57.2556 188.062 57.4646 188.062 57.7153C188.062 58.1888 188.316 58.5579 188.828 58.8156C189.068 58.9375 189.583 59.1012 190.374 59.3031C191.154 59.5086 191.725 59.7349 192.087 59.9856C192.578 60.3304 192.825 60.8179 192.825 61.4481C192.825 62.2281 192.519 62.8201 191.906 63.2171C191.384 63.5513 190.75 63.7185 189.998 63.7185C188.288 63.7185 187.299 63.0708 187.031 61.7685H187.978C188.117 62.5868 188.789 62.9942 189.998 62.9942C190.861 62.9942 191.46 62.7539 191.795 62.2699C191.934 62.0854 192.003 61.8312 192.003 61.5038C192.003 61.1905 191.878 60.9293 191.627 60.7238C191.272 60.4383 190.6 60.1737 189.608 59.9299Z" fill="#282D2A"/>
    <mask id="mask1_79_6020" style="mask-type:luminance" maskUnits="userSpaceOnUse" x="11" y="59" width="27" height="3">
        <path d="M11.3762 59.6631H37.9101V61.6653H11.3762V59.6631Z" fill="white"/>
    </mask>
    <g mask="url(#mask1_79_6020)">
        <path d="M11.3901 60.666L12.0795 60.8889L12.2815 61.6654L12.48 60.8889L12.8839 60.76H38.0528V60.572H12.8839L12.48 60.4431L12.2815 59.6666L12.0795 60.4431L11.3901 60.666Z" fill="black"/>
    </g>
</svg>