<svg xmlns="http://www.w3.org/2000/svg" width="50" height="50" viewBox="0 0 50 50" fill="none">
    <circle cx="25" cy="25" r="25" fill="#A26100"/>
    <path d="M34.5411 30.14L30.6195 26.444C30.4341 26.2693 30.1905 26.1762 29.9402 26.1842C29.6898 26.1922 29.4522 26.3008 29.2776 26.487L26.969 28.948C26.4134 28.838 25.2962 28.477 24.1463 27.288C22.9964 26.095 22.6481 24.934 22.5449 24.362L24.9171 21.968C25.0969 21.7871 25.2018 21.5408 25.2096 21.2812C25.2173 21.0216 25.1273 20.769 24.9586 20.577L21.394 16.513C21.2252 16.3204 20.9906 16.2035 20.7401 16.1873C20.4895 16.171 20.2427 16.2567 20.0521 16.426L17.9587 18.287C17.7919 18.4605 17.6923 18.6914 17.6789 18.936C17.6644 19.186 17.3885 25.108 21.8185 29.702C25.6831 33.707 30.524 34 31.8572 34C32.0521 34 32.1717 33.994 32.2036 33.992C32.4394 33.9783 32.6621 33.8747 32.8287 33.701L34.6231 31.53C34.7871 31.333 34.8703 31.0774 34.855 30.8177C34.8397 30.558 34.727 30.3148 34.5411 30.14Z" fill="white"/>
</svg>