<svg xmlns="http://www.w3.org/2000/svg" width="139" height="114" viewBox="0 0 139 114" fill="none">
    <g opacity="0.2">
        <path d="M63.3444 0L63.3444 112.995" stroke="#9B7C4E"/>
        <path d="M70.1309 0L70.1309 112.995" stroke="#9B7C4E"/>
        <path d="M76.9181 0L76.9181 112.995" stroke="#9B7C4E"/>
        <path d="M83.7058 0L83.7058 112.995" stroke="#9B7C4E"/>
        <path d="M90.492 0L90.492 112.995" stroke="#9B7C4E"/>
        <path d="M97.2794 0L97.2794 112.995" stroke="#9B7C4E"/>
        <path d="M104.066 0L104.066 112.995" stroke="#9B7C4E"/>
        <path d="M110.853 0L110.853 112.995" stroke="#9B7C4E"/>
        <path d="M117.639 0L117.639 112.995" stroke="#9B7C4E"/>
        <path d="M124.426 0L124.426 112.995" stroke="#9B7C4E"/>
        <path d="M131.213 0L131.213 112.995" stroke="#9B7C4E"/>
        <path d="M138 0L138 112.995" stroke="#9B7C4E"/>
        <path d="M0 112.994L63.344 112.994" stroke="#9B7C4E"/>
        <path d="M0 107.57L63.344 107.57" stroke="#9B7C4E"/>
        <path d="M0 102.147L63.344 102.147" stroke="#9B7C4E"/>
        <path d="M0 96.7224L63.344 96.7224" stroke="#9B7C4E"/>
        <path d="M0 91.2996L63.344 91.2996" stroke="#9B7C4E"/>
        <path d="M0 85.8762L63.344 85.8762" stroke="#9B7C4E"/>
        <path d="M0 80.4521L63.344 80.4522" stroke="#9B7C4E"/>
        <path d="M0 75.0278L63.344 75.0278" stroke="#9B7C4E"/>
        <path d="M0 69.6045L63.344 69.6045" stroke="#9B7C4E"/>
        <path d="M0 64.1812L63.344 64.1812" stroke="#9B7C4E"/>
        <path d="M0 58.7571L63.344 58.7571" stroke="#9B7C4E"/>
        <path d="M0 53.3328L63.344 53.3328" stroke="#9B7C4E"/>
    </g>
</svg>