<svg xmlns="http://www.w3.org/2000/svg" width="169" height="174" viewBox="0 0 169 174" fill="none">
    <g opacity="0.5">
        <path d="M91.8852 174L91.8852 1" stroke="#A26100"/>
        <path d="M83.6229 174L83.6229 1" stroke="#A26100"/>
        <path d="M75.3606 174L75.3606 1" stroke="#A26100"/>
        <path d="M67.0983 174L67.0983 1" stroke="#A26100"/>
        <path d="M58.836 174L58.836 1" stroke="#A26100"/>
        <path d="M50.5738 174L50.5738 1" stroke="#A26100"/>
        <path d="M42.3115 174L42.3115 1" stroke="#A26100"/>
        <path d="M34.0492 174L34.0492 1" stroke="#A26100"/>
        <path d="M25.7869 174L25.7869 1" stroke="#A26100"/>
        <path d="M17.5246 174L17.5246 1" stroke="#A26100"/>
        <path d="M9.26227 174L9.26228 1" stroke="#A26100"/>
        <path d="M0.999969 174L0.999977 1" stroke="#A26100"/>
        <path d="M169 1L91.8852 1" stroke="#A26100"/>
        <path d="M169 9.30396L91.8852 9.30396" stroke="#A26100"/>
        <path d="M169 17.6079L91.8852 17.6079" stroke="#A26100"/>
        <path d="M169 25.9119L91.8852 25.9119" stroke="#A26100"/>
        <path d="M169 34.2161L91.8852 34.2161" stroke="#A26100"/>
        <path d="M169 42.52L91.8852 42.52" stroke="#A26100"/>
        <path d="M169 50.824L91.8852 50.824" stroke="#A26100"/>
        <path d="M169 59.1279L91.8852 59.1279" stroke="#A26100"/>
        <path d="M169 67.4319L91.8852 67.4319" stroke="#A26100"/>
        <path d="M169 75.7361L91.8852 75.7361" stroke="#A26100"/>
        <path d="M169 84.04L91.8852 84.04" stroke="#A26100"/>
        <path d="M169 92.344L91.8852 92.344" stroke="#A26100"/>
    </g>
</svg>